<svg xmlns="http://www.w3.org/2000/svg"
shape-rendering="geometricPrecision"
width="4000" height="4000" viewBox="0 0 1024 1024">
  <metadata>null</metadata>

<path d="
M 120.397 560.577
C 123.405 549.631 135.799 542.685 146.483 548.338
C 151.207 550.838 152.687 556.556 156.391 560.181
C 164.54 568.159 179.866 570.491 189.078 562.783
C 198.568 554.841 196.775 542.192 196.781 530.999
C 196.797 505.514 196.534 480.009 196.827 454.53
C 196.03 454.024 194.15 454.332 193.224 454.315
C 190.317 454.263 187.409 454.265 184.502 454.255
C 178.335 454.234 172.168 454.233 166.001 454.232
C 162.447 454.231 158.655 454.617 155.133 454.057
C 148.772 453.046 143.205 448.802 140.609 442.888
C 136.685 433.954 142.903 423.732 151.558 420.556
C 153.955 419.676 156.7 419.77 159.217 419.762
C 162.826 419.749 166.435 419.816 170.044 419.811
C 183.153 419.795 196.262 419.706 209.371 419.753
C 216.007 419.778 223.114 419.399 228.055 424.707
C 232.931 429.945 232.752 435.805 232.752 442.506
C 232.752 448.34 232.761 454.173 232.754 460.006
C 232.728 481.006 232.773 502.005 232.75 523.004
C 232.737 534.721 233.934 547.179 231.54 558.719
C 230.384 564.293 228.453 569.751 225.629 574.704
C 212.404 597.896 183.545 607.169 158.317 600.764
C 146.433 597.747 135.495 591.833 127.515 582.392
C 122.506 576.466 118.878 568.479 120.397 560.577 Z"
opacity="1" fill="rgb(13,161,203)" fill-rule="evenodd" />
<path d="
M 250.47 524.599
C 251.568 514.539 254.662 504.759 259.681 495.943
C 278.263 463.307 320.973 451.746 354.226 467.774
C 361.825 471.436 369.002 476.804 374.612 483.11
C 381.084 490.384 385.897 498.47 389.154 507.659
C 393.002 518.514 393.747 530.075 392.569 541.456
C 391.738 549.493 388.962 557.244 385.363 564.422
C 382.156 570.815 377.468 577.055 372.365 582.058
C 366.473 587.835 360.168 592.429 352.678 595.959
C 322.729 610.075 285.85 601.534 264.933 575.897
C 259.86 569.679 256.049 562.307 253.596 554.682
C 250.487 545.013 249.366 534.708 250.47 524.599 Z
M 282.948 528.121
C 282.501 533.689 283.15 539.224 284.922 544.509
C 286.512 549.254 288.943 553.495 292.143 557.34
C 306.211 574.244 333.086 574.285 348.592 559.621
C 355.641 552.953 359.527 543.036 360.074 533.485
C 361.616 506.62 334.15 485.635 308.731 494.529
C 304.42 496.037 300.381 498.341 296.893 501.271
C 292.986 504.552 289.884 508.375 287.493 512.902
C 284.973 517.677 283.381 522.726 282.948 528.121 Z"
opacity="1" fill="rgb(13,161,203)" fill-rule="evenodd" />
<path d="
M 298.951 519.083
C 300.597 512.122 311.306 514.671 309.548 521.492
C 307.788 528.327 297.373 525.759 298.951 519.083 Z"
opacity="1" fill="rgb(19,30,31)" fill-rule="evenodd" />
<path d="
M 305.936 540.6
C 307.381 524.397 331.905 522.98 336.927 537.694
C 337.6 539.666 337.798 541.808 337.585 543.878
C 337.365 546.005 336.731 548.065 335.717 549.945
C 334.866 551.524 333.728 552.848 332.377 554.022
C 329.668 556.375 326.126 558.007 322.496 558.096
C 313.163 558.324 305.116 549.803 305.936 540.6 Z"
opacity="1" fill="rgb(253,192,32)" fill-rule="evenodd" />
<path d="
M 333.323 518.533
C 335.345 511.613 345.823 514.913 343.67 521.867
C 341.737 528.108 331.516 524.719 333.323 518.533 Z"
opacity="1" fill="rgb(22,31,29)" fill-rule="evenodd" />
<path d="
M 409.966 426.598
C 410.98 421.29 413.496 416.648 417.997 413.438
C 424.298 408.945 433.559 409.795 439.308 414.706
C 441.396 416.49 442.849 418.863 444.025 421.316
C 446.711 426.921 445.493 434.466 445.471 440.507
C 445.441 448.989 445.599 457.473 445.59 465.95
C 445.584 470.798 445.164 475.72 445.496 480.56
C 446.616 479.851 447.362 478.233 448.259 477.247
C 450.135 475.181 452.262 473.267 454.425 471.508
C 462.647 464.821 473.103 461.003 483.695 460.781
C 490.045 460.648 496.467 461.692 502.52 463.595
C 507.648 465.208 512.625 467.499 517.121 470.448
C 549.213 491.496 557.024 537.692 538.033 570.174
C 523.971 594.227 493.143 610.042 465.824 599.315
C 459.462 596.817 454.095 593.123 449.329 588.228
C 447.604 586.455 446.202 584.549 444.699 582.6
C 444.469 582.302 443.196 580.619 443.045 580.662
C 442.996 580.676 443.242 583.574 443.263 584.014
C 443.36 586.005 443.334 588.268 442.65 590.163
C 439.792 598.071 430.668 602.523 422.676 600.39
C 420.979 599.938 419.325 599.085 417.871 598.113
C 407.78 591.371 409.754 578.497 409.739 567.999
C 409.734 564.832 409.749 561.666 409.763 558.499
C 409.897 529.001 409.795 499.499 409.835 470
C 409.847 460.834 409.871 451.666 409.839 442.5
C 409.82 437.243 409.445 431.834 409.966 426.598 Z
M 444.958 526.628
C 443.938 539.602 448.375 553.497 458.579 561.966
C 471.014 572.286 488.725 571.276 500.544 560.621
C 503.602 557.865 506.07 554.061 507.926 550.413
C 510.455 545.44 511.674 540.027 512.071 534.481
C 513.041 520.927 506.657 506.313 495.352 498.661
C 485.54 492.019 471.653 491.996 461.504 497.917
C 456.053 501.097 451.721 506.405 449.044 512.046
C 446.854 516.661 445.359 521.52 444.958 526.628 Z"
opacity="1" fill="rgb(13,161,203)" fill-rule="evenodd" />
<path d="
M 566.445 476.585
C 567.531 473.009 568.933 469.707 571.721 467.072
C 578.526 460.644 590.573 459.532 597.172 467.002
C 600.052 470.263 600.877 473.829 601.052 478.066
C 601.117 479.651 600.682 481.427 601.034 482.973
C 601.945 482.388 602.365 480.884 602.941 479.983
C 604.036 478.271 605.371 476.639 606.744 475.143
C 611.722 469.718 617.936 465.66 624.931 463.346
C 641.358 457.912 660.848 460.676 674.251 471.942
C 681.147 477.739 686.216 485.85 689.233 494.271
C 693.86 507.188 692.092 522.039 692.105 535.505
C 692.118 548.776 692.176 562.05 692.116 575.32
C 692.077 583.857 691.965 592.424 684.234 597.949
C 681.395 599.977 678.021 601.45 674.491 601.546
C 664.934 601.807 656.85 593.965 655.893 584.677
C 655.177 577.721 655.722 570.486 655.729 563.498
C 655.742 550.743 655.709 537.987 655.778 525.232
C 655.836 514.542 654.185 503.312 644.24 497.197
C 642.561 496.165 640.82 495.267 638.941 494.655
C 629.988 491.739 618.461 493.648 611.685 500.464
C 608.076 504.094 605.938 508.704 604.278 513.475
C 601.976 520.086 602.726 527.616 602.72 534.504
C 602.712 546.17 602.702 557.838 602.654 569.505
C 602.626 576.235 603.922 584.328 600.97 590.587
C 595.708 601.747 581.291 605.079 572.119 596.605
C 570.577 595.18 569.171 593.566 568.181 591.707
C 565.745 587.135 566.084 582.005 566.176 577
C 566.283 571.169 566.227 565.334 566.217 559.503
C 566.197 548.169 566.236 536.836 566.211 525.503
C 566.187 514.669 566.217 503.835 566.231 493.001
C 566.237 487.685 565.487 481.826 566.445 476.585 Z"
opacity="1" fill="rgb(13,161,203)" fill-rule="evenodd" />
<path d="
M 713.399 424.589
C 715.258 412.543 728.72 404.105 740.359 407.334
C 751.43 410.406 758.302 421.155 756.689 432.444
C 754.716 446.262 739.104 454.408 726.556 449.19
C 717.083 445.251 711.877 434.449 713.399 424.589 Z"
opacity="1" fill="rgb(251,190,34)" fill-rule="evenodd" />
<path d="
M 716.939 479.105
C 717.425 472.892 720.396 467.335 725.9 464.16
C 735.198 458.797 747.851 462.988 751.83 473.062
C 753.567 477.461 753.295 482.019 753.3 486.671
C 753.306 493.114 753.28 499.556 753.285 505.998
C 753.298 524.498 753.347 542.999 753.297 561.499
C 753.285 566.166 753.256 570.835 753.406 575.5
C 753.54 579.633 753.853 584.204 752.683 588.213
C 752.017 590.496 750.829 592.507 749.339 594.342
C 740.107 605.713 721.366 602.418 717.53 587.923
C 716.344 583.441 716.86 578.433 716.87 573.842
C 716.887 566.06 716.85 558.28 716.827 550.499
C 716.781 534.999 716.823 519.499 716.821 503.999
C 716.82 495.756 716.296 487.325 716.939 479.105 Z"
opacity="1" fill="rgb(252,190,34)" fill-rule="evenodd" />
<path d="
M 771.896 585.6
C 772.885 579.266 778.13 574.454 782.078 569.717
C 790.175 559.998 798.083 550.117 806.099 540.332
C 807.883 538.154 809.664 535.914 811.551 533.828
C 812.285 533.016 813.685 531.919 814.067 530.881
C 814.301 530.245 812.287 528.454 811.905 527.949
C 809.59 524.895 807.129 521.956 804.704 518.992
C 797.959 510.748 790.979 502.582 784.559 494.085
C 781.781 490.408 777.762 486.56 776.44 482.029
C 775.951 480.353 775.782 478.652 775.822 476.911
C 776.103 464.712 790.341 458.701 800.632 463.156
C 806.641 465.758 809.899 471.012 813.882 475.877
C 821.103 484.699 828.68 493.349 835.635 502.374
C 836.419 502.373 837.397 500.503 837.877 499.926
C 839.945 497.433 841.951 494.888 844.032 492.406
C 848.802 486.72 853.432 480.899 858.125 475.15
C 861.705 470.765 865.122 466.291 870.375 463.793
C 874.653 461.758 879.858 461.023 884.441 462.49
C 892.342 465.02 898.045 474.043 895.312 482.299
C 894.409 485.026 892.306 487.218 890.592 489.447
C 888.201 492.555 885.807 495.659 883.25 498.634
C 878.414 504.264 873.987 510.223 869.231 515.919
C 865.272 520.659 860.935 525.406 857.554 530.574
C 858.07 531.723 859.3 532.572 860.052 533.598
C 862.258 536.604 864.634 539.534 866.996 542.418
C 873.842 550.778 880.497 559.294 887.631 567.417
C 889.939 570.045 892.212 572.721 894.424 575.433
C 895.943 577.295 897.696 579.213 898.398 581.569
C 898.917 583.312 899.177 585.292 898.987 587.1
C 898.826 588.638 898.821 590.209 898.178 591.648
C 893.187 602.827 877.75 603.819 868.605 597.687
C 864.49 594.928 861.827 590.491 858.759 586.713
C 853.815 580.624 848.966 574.395 843.912 568.396
C 841.893 566 839.982 563.518 837.921 561.155
C 837.357 560.508 836.349 558.883 835.508 558.764
C 828.262 567.432 821.003 576.142 813.964 584.98
C 809.461 590.633 805.334 597.102 798.378 599.931
C 789.49 603.544 774.753 601.259 772.134 590.409
C 771.759 588.857 771.76 587.183 771.896 585.6 Z"
opacity="1" fill="rgb(252,190,34)" fill-rule="evenodd" />

</svg>